<?xml version="1.0" standalone="no"?>
<!DOCTYPE svg PUBLIC "-//W3C//DTD SVG 20010904//EN"
 "http://www.w3.org/TR/2001/REC-SVG-20010904/DTD/svg10.dtd">
<svg version="1.0" xmlns="http://www.w3.org/2000/svg"
 width="1280.000000pt" height="1198.000000pt" viewBox="0 0 1280.000000 1198.000000"
 preserveAspectRatio="xMidYMid meet">
<g transform="translate(0.000000,1198.000000) scale(0.100000,-0.100000)"
fill="#000000" stroke="none">
<path d="M6270 11977 c-3 -3 -59 -10 -125 -16 -430 -40 -771 -136 -1145 -323
-782 -389 -1364 -1089 -1606 -1931 -175 -609 -158 -1263 51 -1988 189 -655
532 -1309 949 -1816 118 -143 415 -438 546 -543 339 -271 716 -455 1085 -529
526 -106 1081 18 1595 356 198 131 323 235 531 442 356 356 621 734 869 1236
264 534 424 1061 486 1600 21 179 23 561 5 710 -52 429 -170 809 -362 1160
-468 859 -1321 1458 -2276 1600 -210 31 -588 57 -603 42z"/>
<path d="M5930 4194 c-602 -28 -1056 -73 -1550 -154 -2391 -394 -4107 -1460
-4339 -2693 -49 -260 -51 -311 -21 -485 36 -203 86 -325 184 -444 175 -211
516 -346 981 -387 61 -6 171 -15 245 -22 258 -22 798 6 1905 101 132 11 285
25 340 30 208 20 773 64 1070 85 662 44 1042 58 1655 58 613 0 993 -14 1655
-58 297 -21 862 -65 1070 -85 55 -5 208 -19 340 -30 1107 -95 1647 -123 1905
-101 316 28 361 32 480 52 247 41 479 130 622 239 122 92 218 230 266 380 28
86 62 283 62 358 0 82 -35 307 -65 421 -255 957 -1411 1818 -3100 2307 -764
222 -1548 353 -2470 414 -155 11 -1084 21 -1235 14z"/>
</g>
</svg>
